Coordinates
version=1
nRows=31
nColumns=38
inDegrees=no

Units are S.I. units (second, meters, Newtons, ...)
If the header above contains a line with 'inDegrees', this indicates whether rotational values are in degrees (yes) or radians (no).

endheader
time	pelvis_tilt	pelvis_list	pelvis_rotation	pelvis_tx	pelvis_ty	pelvis_tz	hip_flexion_r	hip_adduction_r	hip_rotation_r	knee_angle_r	ankle_angle_r	subtalar_angle_r	mtp_angle_r	hip_flexion_l	hip_adduction_l	hip_rotation_l	knee_angle_l	ankle_angle_l	subtalar_angle_l	mtp_angle_l	lumbar_extension	lumbar_bending	lumbar_rotation	arm_flex_r	arm_add_r	arm_rot_r	elbow_flex_r	pro_sup_r	wrist_flex_r	wrist_dev_r	arm_flex_l	arm_add_l	arm_rot_l	elbow_flex_l	pro_sup_l	wrist_flex_l	wrist_dev_l
0.55	-2.91826	1.04677	1.40899	0.694637	1.14651	0.990315	0.841201	0.0785372	-0.0190934	0.246636	-0.204806	0	0	0.353378	-0.130177	0.0519252	0.788231	-0.34886	0	0	0.514086	0.149965	-0.147938	-0.143593	-0.26722	0.589063	0.313624	1.5708	0	0	-0.148554	-0.278594	0.267633	0.889668	1.42673	0	0
0.56	-2.89891	1.05298	1.39584	0.694009	1.13333	0.991616	0.822028	0.0840715	-0.0344812	0.253094	-0.183441	0	0	0.377413	-0.136726	0.0768123	0.850501	-0.393318	0	0	0.502407	0.15713	-0.149991	-0.140957	-0.273975	0.579535	0.336184	1.5708	0	0	-0.140427	-0.275343	0.280831	0.868963	1.4054	0	0
0.57	-2.88052	1.05971	1.38468	0.693546	1.1202	0.993058	0.799524	0.0886966	-0.0489987	0.253487	-0.166908	0	0	0.40129	-0.141475	0.100885	0.907512	-0.433673	0	0	0.490933	0.162224	-0.151631	-0.13847	-0.279461	0.567717	0.357381	1.5708	0	0	-0.131503	-0.272684	0.296321	0.847184	1.38253	0	0
0.58	-2.86506	1.06529	1.37701	0.693226	1.10719	0.99465	0.776817	0.0919062	-0.0615797	0.250575	-0.154553	0	0	0.426493	-0.143538	0.124172	0.958606	-0.456494	0	0	0.482272	0.164876	-0.152944	-0.136166	-0.283299	0.552933	0.376007	1.5708	0	0	-0.122918	-0.269661	0.311864	0.823766	1.36077	0	0
0.59	-2.85302	1.06889	1.37269	0.69296	1.0944	0.996365	0.755897	0.0939275	-0.0719783	0.246516	-0.143559	0	0	0.453499	-0.143188	0.146337	1.00391	-0.455543	0	0	0.476809	0.165807	-0.152779	-0.134911	-0.286177	0.534796	0.393554	1.5708	0	0	-0.113429	-0.267027	0.331277	0.798496	1.33859	0	0
0.6	-2.8433	1.07151	1.36938	0.692513	1.08161	0.998283	0.735932	0.0961472	-0.0802777	0.241969	-0.132906	0	0	0.480061	-0.142227	0.164626	1.04301	-0.429723	0	0	0.472836	0.166225	-0.149314	-0.135886	-0.287566	0.507363	0.411142	1.5708	0	0	-0.102063	-0.266259	0.359345	0.77178	1.31215	0	0
0.61	-2.83732	1.07324	1.36746	0.691825	1.0688	1.00035	0.716993	0.0987558	-0.0863591	0.235879	-0.126387	0	0	0.50622	-0.140292	0.17795	1.07684	-0.390022	0	0	0.471086	0.1655	-0.144048	-0.136455	-0.287347	0.479099	0.425938	1.5708	0	0	-0.092701	-0.265376	0.385972	0.74552	1.2907	0	0
0.62	-2.83478	1.07498	1.36726	0.691041	1.05593	1.00255	0.698431	0.101336	-0.0898137	0.229076	-0.121885	0	0	0.531269	-0.13694	0.186878	1.10582	-0.343975	0	0	0.470278	0.163407	-0.137112	-0.137201	-0.286442	0.451318	0.439839	1.5708	0	0	-0.0852571	-0.264863	0.411731	0.720784	1.27277	0	0
0.63	-2.83585	1.07691	1.36927	0.690181	1.04304	1.00488	0.680389	0.103537	-0.0910111	0.222799	-0.118155	0	0	0.55516	-0.132574	0.190641	1.12883	-0.300855	0	0	0.470359	0.15948	-0.129745	-0.136789	-0.285259	0.428882	0.45184	1.5708	0	0	-0.0808961	-0.264915	0.433898	0.698808	1.26059	0	0
0.64	-2.83957	1.07949	1.37314	0.689289	1.03011	1.0073	0.661744	0.104889	-0.0902493	0.215929	-0.11504	0	0	0.577408	-0.127945	0.189736	1.14544	-0.258921	0	0	0.469978	0.154094	-0.121844	-0.135929	-0.28368	0.407475	0.463328	1.5708	0	0	-0.0785537	-0.266306	0.454991	0.680065	1.25053	0	0
0.65	-2.84518	1.0829	1.37867	0.688426	1.01713	1.00981	0.641865	0.105045	-0.0888818	0.208521	-0.112937	0	0	0.597781	-0.123034	0.185633	1.15511	-0.225489	0	0	0.469062	0.147442	-0.11501	-0.133814	-0.281825	0.387789	0.473893	1.5708	0	0	-0.0791665	-0.268211	0.47112	0.66448	1.24464	0	0
0.66	-2.85213	1.08695	1.38518	0.687613	1.00419	1.01238	0.620828	0.104403	-0.0873099	0.200771	-0.111274	0	0	0.616511	-0.118151	0.179114	1.15798	-0.197999	0	0	0.467072	0.140201	-0.107852	-0.132077	-0.280306	0.368148	0.486093	1.5708	0	0	-0.0811295	-0.271044	0.485535	0.652137	1.23923	0	0
0.67	-2.85989	1.09028	1.39239	0.686824	0.991388	1.01487	0.60005	0.103476	-0.0857887	0.192658	-0.110357	0	0	0.635255	-0.113968	0.171059	1.15419	-0.179869	0	0	0.466401	0.13258	-0.102171	-0.129479	-0.279985	0.355617	0.498375	1.5708	0	0	-0.0863841	-0.273911	0.493736	0.642938	1.2365	0	0
0.68	-2.86785	1.09403	1.3994	0.68609	0.978637	1.01732	0.57806	0.102761	-0.0843301	0.183161	-0.109912	0	0	0.65246	-0.11083	0.161219	1.14415	-0.159944	0	0	0.464371	0.125346	-0.0943522	-0.128661	-0.279987	0.339757	0.512994	1.5708	0	0	-0.0909212	-0.277033	0.502766	0.634847	1.23269	0	0
0.69	-2.87556	1.09848	1.40657	0.6855	0.965925	1.01975	0.554994	0.101444	-0.0846038	0.172443	-0.110555	0	0	0.667829	-0.108441	0.149573	1.1279	-0.143775	0	0	0.461428	0.118137	-0.086703	-0.127942	-0.280362	0.324692	0.528126	1.5708	0	0	-0.0957947	-0.279911	0.509937	0.627785	1.22813	0	0
0.7	-2.88206	1.10384	1.41323	0.685044	0.953275	1.02213	0.530533	0.0999513	-0.0859755	0.159681	-0.112702	0	0	0.680994	-0.106674	0.137539	1.10596	-0.130325	0	0	0.456915	0.111327	-0.0794151	-0.127309	-0.28103	0.309381	0.544132	1.5708	0	0	-0.100866	-0.282853	0.515294	0.622525	1.22201	0	0
0.71	-2.88729	1.10886	1.41824	0.684539	0.940624	1.0243	0.506705	0.0994296	-0.0898823	0.146996	-0.116044	0	0	0.692976	-0.105912	0.126153	1.07906	-0.118638	0	0	0.452463	0.105513	-0.0717528	-0.127559	-0.282342	0.295121	0.561622	1.5708	0	0	-0.106709	-0.285632	0.51863	0.618483	1.21481	0	0
0.72	-2.89358	1.11116	1.42291	0.683978	0.928057	1.02609	0.486603	0.0995271	-0.0955445	0.135959	-0.120518	0	0	0.706375	-0.106917	0.111258	1.04672	-0.108527	0	0	0.451161	0.100422	-0.0630739	-0.129213	-0.284569	0.282817	0.580551	1.5708	0	0	-0.11401	-0.288094	0.519774	0.615499	1.20656	0	0
0.73	-2.90096	1.11265	1.42727	0.683438	0.915622	1.02762	0.467618	0.0994048	-0.0977299	0.125455	-0.125068	0	0	0.718993	-0.109251	0.0920714	1.00916	-0.0995259	0	0	0.450373	0.0958006	-0.0532865	-0.130458	-0.287359	0.272926	0.599096	1.5708	0	0	-0.121462	-0.290174	0.51966	0.612611	1.19821	0	0
0.74	-2.90873	1.11522	1.4298	0.682775	0.903272	1.02902	0.447591	0.0994446	-0.0955499	0.115176	-0.129525	0	0	0.728274	-0.112962	0.0703129	0.966578	-0.0918763	0	0	0.447489	0.0917694	-0.0417377	-0.130341	-0.290532	0.265809	0.61693	1.5708	0	0	-0.128513	-0.29206	0.518341	0.609894	1.19027	0	0
0.75	-2.91568	1.11723	1.43164	0.682179	0.890873	1.03015	0.427644	0.0995886	-0.0936161	0.104135	-0.134175	0	0	0.736117	-0.11691	0.0492779	0.918823	-0.0868478	0	0	0.445191	0.0880769	-0.030969	-0.130209	-0.293691	0.25861	0.634652	1.5708	0	0	-0.136189	-0.29351	0.515219	0.607415	1.18278	0	0
0.76	-2.92259	1.11811	1.43319	0.681677	0.878433	1.03093	0.408732	0.0995681	-0.0927489	0.0929137	-0.138928	0	0	0.743171	-0.121161	0.0276858	0.86597	-0.0855643	0	0	0.444309	0.0846436	-0.020612	-0.130152	-0.296722	0.251133	0.651795	1.5708	0	0	-0.144939	-0.294744	0.510518	0.60574	1.17626	0	0
0.77	-2.92944	1.11811	1.43472	0.681258	0.866006	1.03137	0.390634	0.0994898	-0.0925219	0.0813729	-0.143888	0	0	0.749493	-0.125357	0.00509758	0.808706	-0.0885055	0	0	0.444277	0.0812883	-0.0107916	-0.129646	-0.29988	0.245206	0.66787	1.5708	0	0	-0.15431	-0.295763	0.504366	0.604588	1.17086	0	0
0.78	-2.93474	1.1174	1.43531	0.680959	0.853541	1.03153	0.373216	0.0997992	-0.0932181	0.0701916	-0.148619	0	0	0.754951	-0.129846	-0.0185248	0.746895	-0.0958639	0	0	0.44504	0.0785142	-0.00231671	-0.129006	-0.303571	0.241131	0.683583	1.5708	0	0	-0.164238	-0.295777	0.496229	0.603186	1.16572	0	0
0.79	-2.94002	1.11662	1.43522	0.680717	0.841065	1.03143	0.355955	0.100158	-0.0932089	0.0592952	-0.152998	0	0	0.758634	-0.134524	-0.044634	0.680855	-0.107523	0	0	0.445761	0.0762169	0.00600547	-0.128241	-0.307199	0.236503	0.698957	1.5708	0	0	-0.174708	-0.295555	0.486642	0.602321	1.16164	0	0
0.8	-2.94641	1.11603	1.43501	0.680443	0.828506	1.03109	0.338889	0.100065	-0.092238	0.049291	-0.156221	0	0	0.759883	-0.13818	-0.0704382	0.610633	-0.123459	0	0	0.446154	0.0738388	0.0152789	-0.127062	-0.310319	0.231652	0.712868	1.5708	0	0	-0.185435	-0.29533	0.476125	0.601182	1.15999	0	0
0.81	-2.9515	1.11648	1.43418	0.680289	0.815983	1.03054	0.320877	0.0998812	-0.0913141	0.039514	-0.158438	0	0	0.757933	-0.139809	-0.0916759	0.536029	-0.144862	0	0	0.44467	0.0717653	0.0237376	-0.124702	-0.313315	0.226735	0.7254	1.5708	0	0	-0.195442	-0.294258	0.463695	0.599355	1.15878	0	0
0.82	-2.95536	1.11719	1.43277	0.680244	0.803435	1.02973	0.303	0.099823	-0.090986	0.0309067	-0.159229	0	0	0.753493	-0.139797	-0.109074	0.457204	-0.168646	0	0	0.442745	0.0700217	0.0310593	-0.122203	-0.316768	0.223112	0.737873	1.5708	0	0	-0.205628	-0.292747	0.45018	0.597532	1.1558	0	0
0.83	-2.95845	1.11749	1.43093	0.680268	0.790861	1.02859	0.285972	0.0999859	-0.0898115	0.0236194	-0.158845	0	0	0.747635	-0.138562	-0.124153	0.375025	-0.194841	0	0	0.441272	0.0686966	0.0376823	-0.119761	-0.320561	0.220461	0.749922	1.5708	0	0	-0.215718	-0.290851	0.436504	0.595085	1.15106	0	0
0.84	-2.96047	1.11719	1.42794	0.68039	0.778302	1.02708	0.270032	0.100647	-0.0871385	0.0174429	-0.15725	0	0	0.741335	-0.136683	-0.136045	0.292155	-0.221423	0	0	0.440304	0.068375	0.0441238	-0.117753	-0.324972	0.218107	0.762129	1.5708	0	0	-0.225187	-0.288083	0.423125	0.591708	1.14385	0	0
0.85	-2.96103	1.11654	1.42318	0.680558	0.7657	1.02522	0.254693	0.101896	-0.0827399	0.012036	-0.154844	0	0	0.735294	-0.134805	-0.143409	0.212173	-0.243772	0	0	0.439601	0.06925	0.0504051	-0.116334	-0.329286	0.213696	0.774578	1.5708	0	0	-0.234126	-0.284924	0.411089	0.587896	1.13435	0	0
